<svg width="23" height="24" viewBox="0 0 23 24" fill="none" xmlns="http://www.w3.org/2000/svg">
<mask id="mask0_4989_14525" style="mask-type:alpha" maskUnits="userSpaceOnUse" x="0" y="0" width="23" height="24">
<rect y="0.755859" width="22.4893" height="22.4893" fill="#D9D9D9"/>
</mask>
<g mask="url(#mask0_4989_14525)">
<path d="M3.09972 19.9651C2.62635 19.9651 2.22568 19.8011 1.89771 19.4732C1.56975 19.1452 1.40576 18.7445 1.40576 18.2712V7.6033C1.40576 7.12993 1.56975 6.72926 1.89771 6.40129C2.22568 6.07333 2.62635 5.90934 3.09972 5.90934H5.96124L7.69479 4.03524H12.9388V5.44082H8.30762L6.58836 7.31492H3.09972C3.01554 7.31492 2.94643 7.34194 2.8924 7.39598C2.83836 7.45001 2.81134 7.51912 2.81134 7.6033V18.2712C2.81134 18.3554 2.83836 18.4245 2.8924 18.4785C2.94643 18.5325 3.01554 18.5595 3.09972 18.5595H17.5158C17.6 18.5595 17.6691 18.5325 17.7231 18.4785C17.7772 18.4245 17.8042 18.3554 17.8042 18.2712V10.3062H19.2098V18.2712C19.2098 18.7445 19.0458 19.1452 18.7178 19.4732C18.3898 19.8011 17.9892 19.9651 17.5158 19.9651H3.09972ZM17.8042 7.31492V5.44082H15.9301V4.03524H17.8042V2.16113H19.2098V4.03524H21.0839V5.44082H19.2098V7.31492H17.8042ZM10.3078 16.7934C11.383 16.7934 12.2945 16.4196 13.0423 15.6718C13.7901 14.924 14.164 14.0125 14.164 12.9372C14.164 11.862 13.7901 10.9505 13.0423 10.2027C12.2945 9.45492 11.383 9.08103 10.3078 9.08103C9.23249 9.08103 8.32097 9.45492 7.57321 10.2027C6.82544 10.9505 6.45156 11.862 6.45156 12.9372C6.45156 14.0125 6.82544 14.924 7.57321 15.6718C8.32097 16.4196 9.23249 16.7934 10.3078 16.7934ZM10.3078 15.3881C9.61575 15.3881 9.03431 15.1526 8.56344 14.6816C8.09241 14.2107 7.8569 13.6292 7.8569 12.9372C7.8569 12.2452 8.09241 11.6638 8.56344 11.1929C9.03431 10.7219 9.61575 10.4864 10.3078 10.4864C10.9998 10.4864 11.5812 10.7219 12.0521 11.1929C12.5231 11.6638 12.7586 12.2452 12.7586 12.9372C12.7586 13.6292 12.5231 14.2107 12.0521 14.6816C11.5812 15.1526 10.9998 15.3881 10.3078 15.3881Z" fill="#4C662B"/>
</g>
</svg>
