<svg width="40" height="40" viewBox="0 0 40 40" fill="none" xmlns="http://www.w3.org/2000/svg">
<rect width="40" height="40" rx="20" fill="white"/>
<mask id="mask0_4523_107329" style="mask-type:alpha" maskUnits="userSpaceOnUse" x="8" y="8" width="24" height="24">
<rect x="8" y="8" width="24" height="24" fill="#D9D9D9"/>
</mask>
<g mask="url(#mask0_4523_107329)">
<mask id="mask1_4523_107329" style="mask-type:alpha" maskUnits="userSpaceOnUse" x="9" y="9" width="22" height="22">
<rect x="9.21533" y="9.21484" width="21.5698" height="21.5698" fill="#D9D9D9"/>
</mask>
<g mask="url(#mask1_4523_107329)">
<path d="M16.2481 20.8981L20.6519 25.3019C20.8317 25.4817 20.9178 25.6914 20.9103 25.9311C20.9028 26.1707 20.8092 26.3804 20.6295 26.5602C20.4497 26.725 20.24 26.8111 20.0003 26.8186C19.7607 26.8261 19.551 26.7399 19.3712 26.5602L13.4395 20.6285C13.3497 20.5386 13.286 20.4413 13.2486 20.3364C13.2111 20.2315 13.1924 20.1192 13.1924 19.9994C13.1924 19.8795 13.2111 19.7672 13.2486 19.6623C13.286 19.5575 13.3497 19.4601 13.4395 19.3703L19.3712 13.4386C19.536 13.2738 19.742 13.1914 19.9891 13.1914C20.2363 13.1914 20.4497 13.2738 20.6295 13.4386C20.8092 13.6183 20.8991 13.8318 20.8991 14.0789C20.8991 14.3261 20.8092 14.5395 20.6295 14.7193L16.2481 19.1006H26.2915C26.5462 19.1006 26.7596 19.1868 26.9319 19.359C27.1042 19.5313 27.1903 19.7447 27.1903 19.9994C27.1903 20.254 27.1042 20.4675 26.9319 20.6397C26.7596 20.812 26.5462 20.8981 26.2915 20.8981H16.2481Z" fill="#4C662B"/>
</g>
</g>
</svg>
