<svg width="40" height="41" viewBox="0 0 40 41" fill="none" xmlns="http://www.w3.org/2000/svg">
<rect x="0.233398" y="0.5" width="39.546" height="39.546" rx="19.773" fill="white"/>
<mask id="mask0_4989_11975" style="mask-type:alpha" maskUnits="userSpaceOnUse" x="8" y="8" width="24" height="25">
<rect x="8.14258" y="8.40918" width="23.7276" height="23.7276" fill="#D9D9D9"/>
</mask>
<g mask="url(#mask0_4989_11975)">
<path d="M16.0045 26.6999C15.794 26.6999 15.6178 26.6289 15.4758 26.4869C15.3339 26.345 15.263 26.1688 15.263 25.9584C15.263 25.748 15.3339 25.5719 15.4758 25.43C15.6178 25.288 15.794 25.2169 16.0045 25.2169H22.3583C23.3901 25.2169 24.278 24.8763 25.0219 24.1949C25.7661 23.5137 26.1381 22.6725 26.1381 21.6711C26.1381 20.6698 25.7661 19.83 25.0219 19.1518C24.278 18.4738 23.3901 18.1347 22.3583 18.1347H15.417L17.6471 20.3649C17.7903 20.5082 17.8619 20.6819 17.8619 20.8859C17.8619 21.0899 17.7903 21.2636 17.6471 21.4069C17.5039 21.5501 17.3287 21.6201 17.1214 21.617C16.9141 21.6137 16.7421 21.5437 16.6053 21.4069L13.2172 18.0188C13.1246 17.9262 13.0593 17.8286 13.0215 17.7259C12.9834 17.6233 12.9644 17.5124 12.9644 17.3933C12.9644 17.2741 12.9834 17.1632 13.0215 17.0606C13.0593 16.9579 13.1246 16.8603 13.2172 16.7677L16.6053 13.3798C16.7485 13.2366 16.9221 13.165 17.1261 13.165C17.3302 13.165 17.5039 13.2366 17.6471 13.3798C17.7903 13.523 17.8603 13.6983 17.8572 13.9055C17.8541 14.1127 17.784 14.2847 17.6471 14.4216L15.417 16.6518H22.3583C23.8045 16.6518 25.0432 17.1344 26.0744 18.0996C27.1055 19.0649 27.6211 20.2554 27.6211 21.6711C27.6211 23.0869 27.1055 24.279 26.0744 25.2473C25.0432 26.2157 23.8045 26.6999 22.3583 26.6999H16.0045Z" fill="#1C1B1F"/>
</g>
</svg>
