<svg width="40" height="41" viewBox="0 0 40 41" fill="none" xmlns="http://www.w3.org/2000/svg">
<rect x="0.111328" y="0.5" width="39.546" height="39.546" rx="19.773" fill="white"/>
<mask id="mask0_4989_11971" style="mask-type:alpha" maskUnits="userSpaceOnUse" x="8" y="8" width="24" height="25">
<rect x="8.02051" y="8.40918" width="23.7276" height="23.7276" fill="#D9D9D9"/>
</mask>
<g mask="url(#mask0_4989_11971)">
<path d="M24.4742 18.1347H17.5329C16.501 18.1347 15.6131 18.4738 14.8692 19.1518C14.1251 19.83 13.753 20.6698 13.753 21.6711C13.753 22.6725 14.1251 23.5137 14.8692 24.1949C15.6131 24.8763 16.501 25.2169 17.5329 25.2169H23.8867C24.0971 25.2169 24.2733 25.288 24.4154 25.43C24.5572 25.5719 24.6282 25.748 24.6282 25.9584C24.6282 26.1688 24.5572 26.345 24.4154 26.4869C24.2733 26.6289 24.0971 26.6999 23.8867 26.6999H17.5329C16.0866 26.6999 14.8479 26.2157 13.8168 25.2473C12.7856 24.279 12.27 23.0869 12.27 21.6711C12.27 20.2554 12.7856 19.0649 13.8168 18.0996C14.8479 17.1344 16.0866 16.6518 17.5329 16.6518H24.4742L22.244 14.4216C22.1071 14.2847 22.0371 14.1127 22.0339 13.9055C22.0308 13.6983 22.1008 13.523 22.244 13.3798C22.3872 13.2366 22.5609 13.165 22.765 13.165C22.969 13.165 23.1426 13.2366 23.2858 13.3798L26.6739 16.7677C26.7665 16.8603 26.8318 16.9579 26.8697 17.0606C26.9077 17.1632 26.9268 17.2741 26.9268 17.3933C26.9268 17.5124 26.9077 17.6233 26.8697 17.7259C26.8318 17.8286 26.7665 17.9262 26.6739 18.0188L23.2858 21.4069C23.1491 21.5437 22.977 21.6137 22.7697 21.617C22.5625 21.6201 22.3872 21.5501 22.244 21.4069C22.1008 21.2636 22.0292 21.0899 22.0292 20.8859C22.0292 20.6819 22.1008 20.5082 22.244 20.3649L24.4742 18.1347Z" fill="#1C1B1F"/>
</g>
</svg>
