mb<svg width="24" height="24" viewBox="0 0 24 24" fill="none" xmlns="http://www.w3.org/2000/svg">
<path d="M12 13.2122L7.75831 17.4538C7.59961 17.6125 7.39763 17.6919 7.15236 17.6919C6.90709 17.6919 6.70511 17.6125 6.5464 17.4538C6.3877 17.2951 6.30835 17.0932 6.30835 16.8479C6.30835 16.6026 6.3877 16.4006 6.5464 16.2419L10.7881 12.0002L6.5464 7.75856C6.3877 7.59986 6.30835 7.39787 6.30835 7.1526C6.30835 6.90734 6.3877 6.70535 6.5464 6.54665C6.70511 6.38795 6.90709 6.30859 7.15236 6.30859C7.39763 6.30859 7.59961 6.38795 7.75831 6.54665L12 10.7883L16.2417 6.54665C16.4004 6.38795 16.6024 6.30859 16.8476 6.30859C17.0929 6.30859 17.2949 6.38795 17.4536 6.54665C17.6123 6.70535 17.6917 6.90734 17.6917 7.1526C17.6917 7.39787 17.6123 7.59986 17.4536 7.75856L13.2119 12.0002L17.4536 16.2419C17.6123 16.4006 17.6917 16.6026 17.6917 16.8479C17.6917 17.0932 17.6123 17.2951 17.4536 17.4538C17.2949 17.6125 17.0929 17.6919 16.8476 17.6919C16.6024 17.6919 16.4004 17.6125 16.2417 17.4538L12 13.2122Z" fill="#EEEFE3"/>
</svg>
