<svg width="40" height="40" viewBox="0 0 40 40" fill="none" xmlns="http://www.w3.org/2000/svg">
<rect x="0.454102" width="39.546" height="39.546" rx="19.773" fill="#F0F0F0"/>
<mask id="mask0_4989_13313" style="mask-type:alpha" maskUnits="userSpaceOnUse" x="9" y="8" width="23" height="23">
<rect x="9.24219" y="8.78809" width="21.97" height="21.97" fill="#D9D9D9"/>
</mask>
<g mask="url(#mask0_4989_13313)">
<path d="M13.8191 26.1809H15.1236L24.0718 17.2327L22.7673 15.9282L13.8191 24.8764V26.1809ZM12.9037 28.0117C12.6443 28.0117 12.4269 27.924 12.2515 27.7485C12.076 27.5731 11.9883 27.3556 11.9883 27.0963V24.8764C11.9883 24.6323 12.0341 24.3996 12.1256 24.1784C12.2171 23.9572 12.3468 23.7626 12.5146 23.5948L24.0718 12.0605C24.2549 11.8927 24.457 11.763 24.6783 11.6715C24.8995 11.58 25.1322 11.5342 25.3763 11.5342C25.6204 11.5342 25.8569 11.58 26.0857 11.6715C26.3146 11.763 26.5129 11.9003 26.6807 12.0834L27.9394 13.365C28.1225 13.5328 28.256 13.7312 28.3399 13.96C28.4238 14.1889 28.4658 14.4177 28.4658 14.6466C28.4658 14.8907 28.4238 15.1234 28.3399 15.3446C28.256 15.5658 28.1225 15.768 27.9394 15.9511L16.4052 27.4853C16.2373 27.6532 16.0428 27.7828 15.8216 27.8744C15.6004 27.9659 15.3677 28.0117 15.1236 28.0117H12.9037ZM23.4081 16.5919L22.7673 15.9282L24.0718 17.2327L23.4081 16.5919Z" fill="#404040"/>
</g>
</svg>
